<svg width="204" height="204" viewBox="0 0 204 204" fill="none" xmlns="http://www.w3.org/2000/svg">
<path d="M98.9011 41.5296C100.054 39.5217 102.951 39.5217 104.104 41.5296L150.611 122.506C151.76 124.506 150.316 127 148.01 127H54.9957C52.6893 127 51.2456 124.506 52.3942 122.506L98.9011 41.5296Z" fill="#FFDF58"/>
<path d="M11.4705 114.095C9.47842 112.938 9.47842 110.062 11.4705 108.905L85.3082 66.0508C87.3082 64.89 89.8141 66.333 89.8141 68.6454L89.8141 154.355C89.8141 156.667 87.3082 158.11 85.3082 156.949L11.4705 114.095Z" fill="#0049AF"/>
<path d="M192.529 108.905C194.522 110.062 194.522 112.938 192.529 114.095L118.692 156.949C116.692 158.11 114.186 156.667 114.186 154.355L114.186 68.6454C114.186 66.333 116.692 64.89 118.692 66.0508L192.529 108.905Z" fill="#FF0E0E"/>
<path d="M187.48 90.3966C189.492 91.549 189.492 94.451 187.48 95.6034L140.562 122.471C138.562 123.617 136.071 122.173 136.071 119.868L136.071 66.1321C136.071 63.8274 138.562 62.3834 140.562 63.5287L187.48 90.3966Z" fill="#FF9737"/>
<path d="M58.3001 127.603C56.2878 126.451 56.2878 123.549 58.3001 122.397L105.219 95.5287C107.219 94.3834 109.709 95.8274 109.709 98.1321L109.709 151.868C109.709 154.173 107.219 155.617 105.219 154.471L58.3001 127.603Z" fill="#008134"/>
</svg>
